<svg xmlns="http://www.w3.org/2000/svg" viewBox="0 0 982.67 355.18"><defs><style>.cls-1{fill:#fff;}.cls-2{fill:#3b4ff0;}</style></defs><g id="Layer_2" data-name="Layer 2"><g id="Layer_1-2" data-name="Layer 1"><path class="cls-1" d="M113.11,275.87v-43.5H213v89.14q-28.67,19.55-50.71,26.61T110,355.18q-37.23,0-60.7-12.7t-36.37-37.8Q0,279.58,0,247.06q0-34.25,14.12-59.56t41.37-38.44q21.24-10.12,57.2-10.12,34.65,0,51.84,6.27a67.42,67.42,0,0,1,28.53,19.47q11.34,13.2,17.05,33.45l-62.34,11.13q-3.84-11.83-13.05-18.12t-23.46-6.27q-21.26,0-33.88,14.76T64.76,246.34q0,34,12.76,48.5t35.59,14.55a67.81,67.81,0,0,0,20.69-3.14,111,111,0,0,0,22.53-10.7V275.87Z"/><path class="cls-1" d="M242.19,351.61V142.5H349.88q30,0,45.79,5.14a48.76,48.76,0,0,1,25.53,19q9.69,13.9,9.7,33.88,0,17.4-7.42,30a58.07,58.07,0,0,1-20.41,20.47q-8.28,5-22.69,8.27,11.53,3.87,16.82,7.71,3.56,2.58,10.33,11t9.05,13l31.29,60.59h-73l-34.54-63.9q-6.56-12.4-11.69-16.12a27.15,27.15,0,0,0-15.84-4.85h-5.7v84.87Zm64.9-124.38h27.24q4.43,0,17.12-2.85a17.12,17.12,0,0,0,10.48-6.56A19.34,19.34,0,0,0,366,205.69q0-10.12-6.42-15.55t-24.11-5.42H307.09Z"/><path class="cls-2" d="M445.43,247.2q0-51.21,28.53-79.74t79.45-28.52q52.2,0,80.45,28t28.24,78.53q0,36.66-12.34,60.12a88,88,0,0,1-35.66,36.52q-23.31,13-58.12,13.05-35.38,0-58.56-11.27t-37.58-35.66Q445.43,283.86,445.43,247.2Zm64.62.28q0,31.66,11.76,45.51t32,13.83q20.82,0,32.23-13.55t11.42-48.64q0-29.52-11.92-43.15t-32.3-13.62q-19.54,0-31.38,13.84T510.05,247.48Z"/><path class="cls-1" d="M982.67,83.29l-15.82-4-60,272.29H843.47L806.79,220,770.26,351.61H706.89L660.37,142.5h61.38l22.09,117.07L776.18,142.5h61.15l32.42,116.91q19.41-84.75,38.83-169.5L914,66.06,898.68,62.2,958.93,0Z"/></g></g></svg>